<?xml version="1.0" encoding="utf-8"?>
<!-- Generator: Adobe Illustrator 23.0.3, SVG Export Plug-In . SVG Version: 6.00 Build 0)  -->
<svg version="1.1" id="Layer_1" xmlns="http://www.w3.org/2000/svg" xmlns:xlink="http://www.w3.org/1999/xlink" x="0px" y="0px"
	 viewBox="0 0 518 518" enable-background="new 0 0 518 518" xml:space="preserve">
<g>
	<g>
		<g>
			<path fill="#F50049" stroke="#F50049" stroke-width="6" stroke-miterlimit="10" d="M440,78C391.7,29.6,327.4,3,259,3S126.3,29.6,78,78
				C29.6,126.3,3,190.6,3,259s26.6,132.7,75,181c48.4,48.4,112.6,75,181,75s132.7-26.6,181-75c48.4-48.4,75-112.6,75-181
				S488.4,126.3,440,78z M429.3,429.3c-45.5,45.5-105.9,70.5-170.3,70.5s-124.8-25-170.3-70.5c-45.4-45.5-70.5-106-70.5-170.3
				s25-124.8,70.5-170.3c45.5-45.4,106-70.5,170.3-70.5s124.8,25,170.3,70.5s70.5,105.9,70.5,170.3S474.7,383.8,429.3,429.3z"/>
			<path fill="#F50049" stroke="#F50049" stroke-width="6" stroke-miterlimit="10" d="M453.8,176l-13.8,6.4c13,27.8,19.6,57.8,19.6,88.9h15.2
				C474.8,237.9,467.8,205.9,453.8,176z"/>
			<path fill="#F50049" stroke="#F50049" stroke-width="6" stroke-miterlimit="10" d="M411.5,110.1C368.9,67.5,312.2,44,252,44v15.2
				c56.2,0,109,21.9,148.8,61.6c12.9,12.9,24,27.3,33.1,42.8l13.1-7.7C437.2,139.3,425.3,123.9,411.5,110.1z"/>
		</g>
		<g>
			<g>
				<path fill="#F50049" stroke="#F50049" stroke-width="5" stroke-miterlimit="10" d="M342.6,312.2c0,0-3.4,0-8.7,0c-15,0-43,2.8-61.2,21
					c-2.4,2.4-4.5,5-6.4,7.8v-41.4h0.9c15,0,43-2.7,61.2-21c25-25,20.8-68.1,20.7-69.9c-0.4-3.4-3.1-6.1-6.5-6.5c0,0-3.4,0-8.7,0
					c-15,0-43,2.8-61.2,21c-2.4,2.4-4.5,5-6.4,7.8v-19c8.2-7.3,32.1-31.8,32.1-61.7c0-35.3-33.4-62.9-34.8-64
					c-2.7-2.2-6.5-2.2-9.2,0c-1.5,1.2-34.8,28.8-34.8,64c0,29.9,24,54.3,32.1,61.7v18.6c-1.9-2.8-4-5.4-6.4-7.9
					c-18.3-18.3-46.2-21-61.2-21c-5.3,0-8.7,0-8.7,0c-3.4,0.4-6.1,3.1-6.5,6.5c0,1.8-4.3,44.9,20.7,69.9c18.3,18.3,46.2,21,61.2,21
					h0.9v41c-1.9-2.7-4.1-5.1-6.5-7.4c-18.3-18.3-46.2-21-61.2-21c-5.3,0-8.7,0-8.7,0c-3.4,0.4-6.1,3.1-6.5,6.5
					c0,1.8-4.3,44.9,20.7,69.9c18.3,18.3,46.2,21,61.2,21h0.9v59.6c0,4,3.3,7.3,7.3,7.3c4,0,7.3-3.3,7.3-7.3v-59.1h0.8
					c15,0,43-2.7,61.2-21c25-25,20.8-68.1,20.7-69.9C348.7,315.3,346,312.6,342.6,312.2z M200,268.4c-15.1-15.1-16.8-40.3-16.8-51.9
					h0.9c10.3,0,35.8,1.6,51,16.8s16.8,40.3,16.8,51.9C242,285.4,215.6,284,200,268.4z M251.9,395c-9.9,0.2-36.3-1.2-51.9-16.8
					c-15.1-15.1-16.8-40.3-16.8-51.9c10,0,36.4,1.2,51.9,16.8S252,383.5,251.9,395z M259.3,199L259.3,199
					c-8.4-8.2-24.9-27.2-24.9-48.6s16.6-40.3,24.8-48.5c8.3,8.2,24.8,27.2,24.8,48.5S267.6,190.8,259.3,199z M283.3,233.2l-0.4,0.1
					c15.1-15.1,40.7-16.8,51-16.8h0.9c0,11.6-1.5,36.4-16.8,51.9s-41.9,17-51.9,16.8C266.4,273.3,268.1,248.4,283.3,233.2z
					 M318.4,378.3c-15.2,15.5-40.6,16.8-51,16.8h-0.9c0-11.7,1.7-36.8,16.8-51.9l-0.1-0.1c15.1-15.1,40.7-16.8,51-16.8h0.9
					C335.1,337.9,333.6,362.8,318.4,378.3z"/>
			</g>
		</g>
	</g>
</g>
</svg>
