<?xml version="1.0" encoding="utf-8"?>
<!-- Generator: Adobe Illustrator 23.0.3, SVG Export Plug-In . SVG Version: 6.00 Build 0)  -->
<svg version="1.1" id="Layer_1" xmlns="http://www.w3.org/2000/svg" xmlns:xlink="http://www.w3.org/1999/xlink" x="0px" y="0px"
	 viewBox="0 0 512.2 512.3" enable-background="new 0 0 512.2 512.3" xml:space="preserve">
<g>
	<g>
		<path fill="var(--color-social, #F50049)" stroke="var(--color-social, #F50049)" stroke-width="0.25" stroke-miterlimit="10" d="M373.8,0.1H138.4C62.2,0.1,0.1,62.2,0.1,138.4v235.3
			c0,76.3,62.1,138.4,138.3,138.4h235.3C450,512.1,512,450,512,373.8V138.4C512.1,62.2,450,0.1,373.8,0.1z M470.7,373.8
			c0,53.5-43.5,97-97,97H138.4c-53.5,0-97-43.5-97-97V138.4c0-53.5,43.5-97,97-97h235.3c53.5,0,97,43.5,97,97V373.8z"/>
	</g>
</g>
<g>
	<g>
		<path fill="var(--color-social, #F50049)" d="M370.7,238.2c-3.6-24.5-14.8-46.8-32.4-64.3c-17.5-17.5-39.8-28.7-64.3-32.4c-11.2-1.7-22.5-1.7-33.7,0
			c-30.3,4.5-57.1,20.5-75.4,45.2s-25.9,54.9-21.4,85.2s20.5,57.1,45.2,75.4c20,14.8,43.7,22.6,68.2,22.6c5.7,0,11.4-0.4,17.1-1.3
			c30.3-4.5,57.1-20.5,75.4-45.2C367.6,298.8,375.2,268.6,370.7,238.2z M267.9,327.7c-19.4,2.9-38.8-2-54.5-13.7s-26-28.8-28.9-48.2
			c-2.9-19.4,2-38.8,13.7-54.5c11.7-15.8,28.8-26,48.2-28.9c3.6-0.5,7.2-0.8,10.8-0.8c3.6,0,7.2,0.3,10.8,0.8
			c32.2,4.8,57.1,29.6,61.9,61.9C335.7,284.4,308,321.8,267.9,327.7z"/>
	</g>
</g>
<g>
	<g>
		<path fill="var(--color-social, #F50049)" d="M400.1,112.1c-3.9-3.9-9.2-6.1-14.6-6.1s-10.8,2.2-14.6,6.1c-3.9,3.9-6.1,9.2-6.1,14.6c0,5.5,2.2,10.8,6.1,14.6
			c3.9,3.9,9.2,6.1,14.6,6.1s10.8-2.2,14.6-6.1c3.9-3.9,6.1-9.2,6.1-14.6C406.2,121.2,404,115.9,400.1,112.1z"/>
	</g>
</g>
</svg>
