<?xml version="1.0" encoding="utf-8"?>
<!-- Generator: Adobe Illustrator 23.0.3, SVG Export Plug-In . SVG Version: 6.00 Build 0)  -->
<svg version="1.1" id="Layer_1" xmlns="http://www.w3.org/2000/svg" xmlns:xlink="http://www.w3.org/1999/xlink" x="0px" y="0px" width="33" height="32"
	 viewBox="0 0 33 32" enable-background="new 0 0 33 32" xml:space="preserve">
<path fill="#F50049" d="M31.24,7.21h-4.58c0.77-0.81,1.2-1.89,1.2-3.02c0,0,0-0.18,0-0.23C27.81,2.53,27,1.22,25.73,0.54
	c-1.3-0.72-2.89-0.72-4.19,0L19.46,1.7c-1.28,0.7-2.31,1.78-2.96,3.08c-0.65-1.3-1.68-2.38-2.96-3.08l-2.08-1.15
	c-1.3-0.72-2.89-0.72-4.19,0C6,1.23,5.19,2.53,5.14,3.97c0,0.05,0,0.23,0,0.23c0,1.12,0.43,2.2,1.2,3.02H1.76
	C0.8,7.21,0.01,7.98,0,8.94v4.09c0.01,0.96,0.8,1.73,1.76,1.73h0.81v15.52c0.01,0.96,0.8,1.73,1.76,1.73h24.35
	c0.96,0.01,1.75-0.76,1.76-1.73V14.76h0.81c0.96,0.01,1.75-0.76,1.76-1.73V8.94C32.99,7.97,32.2,7.2,31.24,7.21z M20.18,2.95
	l2.08-1.15c0.85-0.47,1.89-0.47,2.75,0c0.82,0.44,1.35,1.28,1.39,2.22c0,0.04,0,0.18,0,0.18c-0.02,1.68-1.4,3.03-3.08,3.02h-6.04
	C17.51,5.41,18.59,3.82,20.18,2.95L20.18,2.95z M6.6,4.02C6.64,3.08,7.17,2.24,7.99,1.8c0.85-0.47,1.89-0.47,2.75,0l2.08,1.15
	c1.59,0.88,2.67,2.46,2.9,4.26H9.68C8,7.23,6.62,5.88,6.6,4.2C6.6,4.2,6.6,4.05,6.6,4.02z M13.2,16.94h-3.02
	c-0.4-0.01-0.73,0.3-0.75,0.69s0.3,0.73,0.69,0.75c0.02,0,0.04,0,0.05,0h3.02v12.18H4.33c-0.16,0-0.29-0.13-0.29-0.29v0V14.76h9.17
	V16.94L13.2,16.94L13.2,16.94z M13.2,13.32H1.76c-0.16,0-0.29-0.13-0.29-0.29v0V8.94c0-0.16,0.13-0.29,0.29-0.29c0,0,0,0,0,0H13.2
	V13.32L13.2,13.32z M18.33,30.56h-3.67V8.65h3.67V30.56z M28.97,30.28c0,0.16-0.13,0.29-0.29,0.29c0,0,0,0,0,0H19.8V18.38h2.79
	c0.4,0.01,0.73-0.3,0.75-0.69c0.01-0.4-0.3-0.73-0.69-0.75c-0.02,0-0.04,0-0.05,0H19.8v-2.19h9.17L28.97,30.28L28.97,30.28
	L28.97,30.28z M31.53,13.03c0,0.16-0.13,0.29-0.29,0.29c0,0,0,0,0,0H19.8V8.65h11.44c0.16,0,0.29,0.13,0.29,0.29v0L31.53,13.03
	L31.53,13.03L31.53,13.03z M26.08,18.38h0.07c0.4,0.01,0.73-0.3,0.75-0.69c0.01-0.4-0.3-0.73-0.69-0.75c-0.02,0-0.04,0-0.05,0h-0.07
	c-0.4-0.01-0.73,0.29-0.75,0.69c-0.01,0.4,0.29,0.73,0.69,0.75C26.04,18.38,26.06,18.38,26.08,18.38L26.08,18.38z M6.62,18.38H6.7
	c0.4,0.01,0.73-0.3,0.75-0.69s-0.3-0.73-0.69-0.75c-0.02,0-0.04,0-0.05,0H6.62c-0.4-0.01-0.73,0.29-0.75,0.69
	c-0.01,0.4,0.29,0.73,0.69,0.75C6.59,18.38,6.61,18.38,6.62,18.38L6.62,18.38z"/>
</svg>
