<?xml version="1.0" encoding="utf-8"?>
<!-- Generator: Adobe Illustrator 23.0.3, SVG Export Plug-In . SVG Version: 6.00 Build 0)  -->
<svg version="1.1" id="Layer_1" xmlns="http://www.w3.org/2000/svg" xmlns:xlink="http://www.w3.org/1999/xlink" x="0px" y="0px" width="9" height="16"
	 viewBox="0 0 9 16" enable-background="new 0 0 9 16" xml:space="preserve">
<path fill="#F77B91" d="M8.53,9.05c0.59-0.58,0.59-1.52,0.01-2.11c0,0-0.01-0.01-0.01-0.01L1.71,0.29c-0.4-0.39-1.03-0.39-1.43,0
	c-0.39,0.38-0.39,1.01-0.01,1.4c0,0,0.01,0.01,0.01,0.01l6.46,6.29l-6.46,6.29c-0.39,0.38-0.39,1.01-0.01,1.4
	c0,0,0.01,0.01,0.01,0.01c0.4,0.39,1.03,0.39,1.43,0L8.53,9.05L8.53,9.05z"/>
</svg>
