<?xml version="1.0" encoding="utf-8"?>
<!-- Generator: Adobe Illustrator 23.0.3, SVG Export Plug-In . SVG Version: 6.00 Build 0)  -->
<svg version="1.1" id="Layer_1" xmlns="http://www.w3.org/2000/svg" xmlns:xlink="http://www.w3.org/1999/xlink" x="0px" y="0px" width="35" height="22"
	 viewBox="0 0 25.73 16.81" enable-background="new 0 0 25.73 16.81" xml:space="preserve">
<path fill="#ffffff" d="M8.93,12.82c1.06-1.7,1.61-3.66,1.59-5.66c0.08-1.77-0.37-3.52-1.29-5.03C8.27,0.71,6.64-0.1,4.93,0.01
	C3.63-0.04,2.36,0.42,1.4,1.3c-1.83,1.89-1.86,4.87-0.09,6.8c0.93,0.85,2.16,1.29,3.42,1.24C6.05,9.39,7.34,8.86,8.25,7.9
	c0.08,0.37,0.12,0.76,0.12,1.14C8.37,9.5,8.32,9.95,8.22,10.4c-0.24,1.15-0.78,2.21-1.57,3.07c-0.81,0.96-1.83,1.73-2.98,2.25
	l0.56,1.09C6.16,15.98,7.79,14.59,8.93,12.82z M24.13,12.82c1.06-1.7,1.61-3.66,1.59-5.66c0.08-1.77-0.37-3.52-1.29-5.03
	c-0.95-1.42-2.58-2.23-4.29-2.12c-1.3-0.05-2.57,0.42-3.54,1.29c-1.83,1.89-1.86,4.87-0.09,6.8c0.93,0.85,2.16,1.29,3.42,1.24
	c1.33,0.05,2.61-0.47,3.52-1.44c0.08,0.37,0.12,0.76,0.12,1.14c0.01,0.46-0.04,0.91-0.15,1.36c-0.24,1.15-0.78,2.21-1.57,3.07
	c-0.81,0.96-1.83,1.73-2.98,2.25l0.56,1.09C21.36,15.98,23,14.59,24.13,12.82z"/>
</svg>
