<?xml version="1.0" encoding="utf-8"?>
<!-- Generator: Adobe Illustrator 23.0.3, SVG Export Plug-In . SVG Version: 6.00 Build 0)  -->
<svg version="1.1" id="Layer_1" xmlns="http://www.w3.org/2000/svg" xmlns:xlink="http://www.w3.org/1999/xlink" x="0px" y="0px" width="9" height="16"
	 viewBox="0 0 9 16" enable-background="new 0 0 9 16" xml:space="preserve">
<path fill="#F77B91" d="M0.44,9.05c-0.59-0.58-0.59-1.52-0.02-2.1c0.01-0.01,0.01-0.01,0.02-0.02l6.84-6.64
	c0.4-0.39,1.03-0.39,1.43,0c0.39,0.38,0.4,1.01,0.01,1.4c0,0-0.01,0.01-0.01,0.01L2.23,7.99l6.49,6.29c0.39,0.38,0.4,1.01,0.01,1.4
	c0,0-0.01,0.01-0.01,0.01c-0.4,0.39-1.03,0.39-1.43,0L0.44,9.05L0.44,9.05z"/>
</svg>
